M48
; DRILL file KiCad 10.0.4 date 2026-07-16T15:38:43
; FORMAT={-:-/ absolute / metric / decimal}
; #@! TF.CreationDate,2026-07-16T15:38:43-04:00
; #@! TF.GenerationSoftware,Kicad,Pcbnew,10.0.4
; #@! TF.FileFunction,Plated,1,2,PTH
FMAT,2
METRIC
; #@! TA.AperFunction,Plated,PTH,ViaDrill
T1C0.300
; #@! TA.AperFunction,Plated,PTH,ComponentDrill
T2C0.600
; #@! TA.AperFunction,Plated,PTH,ComponentDrill
T3C1.000
%
G90
G05
T1
X156.7Y-70.0
X156.75Y-71.498
X158.009Y-89.1
X158.725Y-85.2
X158.934Y-86.257
X159.5Y-83.0
X159.5Y-85.0
X160.0Y-70.5
X160.0Y-71.5
X160.0Y-72.5
X160.174Y-80.826
X160.469Y-76.472
X161.0Y-84.0
X161.5Y-77.4
X162.0Y-74.0
X162.0Y-89.5
X162.5Y-86.0
X162.5Y-87.5
X162.637Y-93.711
X163.495Y-90.371
X163.881Y-79.6
X164.0Y-69.5
X164.0Y-70.5
X164.0Y-71.5
X164.326Y-77.326
X164.5Y-86.0
X164.9Y-81.0
X164.9Y-83.88
X165.164Y-90.25
X165.5Y-78.5
X165.5Y-85.5
X165.957Y-90.148
X166.2Y-93.04
X166.5Y-77.0
X166.5Y-85.8
X166.5Y-87.5
X166.5Y-88.5
X166.963Y-89.158
X167.083Y-73.917
X167.5Y-60.0
X168.0Y-65.5
X168.0Y-93.0
X169.0Y-78.5
X169.0Y-79.5
X169.0Y-82.5
X169.0Y-94.0
X169.4Y-81.4
X169.5Y-85.0
X170.0Y-59.0
X170.066Y-85.566
X171.78Y-89.089
T3
X155.0Y-59.0
X155.0Y-61.54
X155.0Y-64.08
X155.0Y-66.62
X155.0Y-69.16
X155.0Y-71.7
X155.0Y-74.24
X155.0Y-76.78
X155.0Y-79.32
X155.0Y-81.86
X155.0Y-84.4
X155.0Y-86.94
X155.0Y-89.48
X155.0Y-92.02
X155.0Y-94.56
X155.0Y-97.1
X155.0Y-99.64
X155.0Y-102.18
X155.0Y-104.72
X155.0Y-107.26
X160.38Y-114.0
X161.42Y-107.5
X162.92Y-114.0
X163.96Y-107.5
X165.46Y-114.0
X166.5Y-107.5
X168.0Y-114.0
X173.28Y-58.98
X173.28Y-61.52
X173.28Y-64.06
X173.28Y-66.6
X173.28Y-69.14
X173.28Y-71.68
X173.28Y-74.22
X173.28Y-76.76
X173.28Y-79.3
X173.28Y-81.84
X173.28Y-84.38
X173.28Y-86.92
X173.28Y-89.46
X173.28Y-92.0
X173.28Y-94.54
X173.28Y-97.08
X173.28Y-99.62
X173.28Y-102.16
X173.28Y-104.7
X173.28Y-107.24
T2
G00X160.07Y-59.36
M15
G01X160.07Y-58.76
M16
G05
G00X160.07Y-63.79
M15
G01X160.07Y-62.69
M16
G05
G00X168.71Y-59.36
M15
G01X168.71Y-58.76
M16
G05
G00X168.71Y-63.79
M15
G01X168.71Y-62.69
M16
G05
M30
